<?xml version="1.0" standalone="no"?>
<!DOCTYPE svg PUBLIC "-//W3C//DTD SVG 20010904//EN"
 "http://www.w3.org/TR/2001/REC-SVG-20010904/DTD/svg10.dtd">
<svg version="1.0" xmlns="http://www.w3.org/2000/svg"
 width="270.000000pt" height="148.000000pt" viewBox="0 0 270.000000 148.000000"
 preserveAspectRatio="xMidYMid meet">
<metadata>
Created by potrace 1.10, written by Peter Selinger 2001-2011
</metadata>
<g transform="translate(0.000000,148.000000) scale(0.100000,-0.100000)"
fill="#000000" stroke="none">
<path d="M942 909 c-112 -135 -125 -163 -120 -244 3 -52 10 -73 34 -107 119
-169 386 -89 387 116 0 28 -7 67 -15 86 -15 35 -184 250 -197 250 -3 0 -43
-45 -89 -101z m163 -54 c100 -119 115 -167 74 -247 l-21 -42 -13 38 c-17 47
-37 70 -102 112 -58 37 -73 58 -73 104 0 43 42 125 61 118 4 -2 38 -39 74 -83z
m-95 -178 c106 -79 129 -136 64 -157 -73 -24 -167 23 -198 99 -22 56 -20 76
10 141 l26 55 17 -45 c13 -35 31 -56 81 -93z"/>
<path d="M1824 875 c-4 -9 -2 -21 4 -27 16 -16 47 -5 47 17 0 26 -42 34 -51
10z"/>
<path d="M1380 873 c-31 -12 -50 -42 -50 -81 0 -49 20 -68 100 -92 33 -10 68
-24 76 -30 36 -30 -5 -90 -62 -90 -46 0 -64 9 -75 36 -8 22 -37 32 -52 18 -12
-12 23 -64 53 -79 56 -29 146 -13 174 30 23 35 20 82 -7 109 -13 13 -50 31
-83 41 -70 20 -84 30 -84 60 0 28 17 43 58 51 36 7 82 -16 82 -41 0 -9 10 -15
25 -15 34 0 32 24 -4 61 -26 25 -37 29 -83 28 -29 0 -60 -3 -68 -6z"/>
<path d="M1590 706 c0 -105 10 -138 47 -155 35 -16 57 -14 86 9 25 20 25 20
30 0 3 -11 12 -20 21 -20 14 0 16 18 16 130 0 123 -1 130 -20 130 -19 0 -20
-7 -20 -89 0 -85 -1 -91 -26 -110 -64 -50 -96 -11 -93 111 2 78 1 83 -19 86
-21 3 -22 0 -22 -92z"/>
<path d="M1830 670 c0 -123 1 -130 20 -130 19 0 20 7 20 130 0 123 -1 130 -20
130 -19 0 -20 -7 -20 -130z"/>
</g>
</svg>
